<svg width="11" height="11" viewBox="0 0 11 11" fill="none" xmlns="http://www.w3.org/2000/svg">
<path d="M10.3928 3.47261C10.3853 3.06487 10.3084 2.66139 10.1656 2.27943C10.0387 1.95248 9.84508 1.6556 9.59697 1.40778C9.34885 1.15996 9.05174 0.96665 8.72464 0.840225C8.34264 0.697509 7.93918 0.62066 7.53146 0.612953C7.00419 0.586248 6.83714 0.580566 5.50135 0.580566C4.16555 0.580566 3.99851 0.586248 3.47408 0.609544C3.06634 0.617086 2.66285 0.69394 2.28089 0.836816C1.95192 0.960069 1.654 1.15403 1.40817 1.405C1.15801 1.65061 0.964154 1.9476 0.839986 2.27545C0.69728 2.65746 0.620431 3.06091 0.612713 3.46863C0.587713 3.99761 0.582031 4.16466 0.582031 5.50045C0.582031 6.83625 0.587713 7.00102 0.611009 7.52773C0.618529 7.93547 0.695383 8.33895 0.838281 8.72091C0.964905 9.04769 1.1583 9.34447 1.40611 9.59228C1.65392 9.84009 1.9507 10.0335 2.27749 10.1601C2.65949 10.3028 3.06295 10.3797 3.47067 10.3874C3.9951 10.4107 4.16271 10.4164 5.49794 10.4164C6.83317 10.4164 7.00078 10.4107 7.52521 10.3874C7.93295 10.3799 8.33644 10.303 8.71839 10.1601C9.04529 10.0337 9.34216 9.84034 9.58999 9.59251C9.83783 9.34467 10.0312 9.0478 10.1576 8.72091C10.3003 8.33889 10.3771 7.93544 10.3849 7.52773C10.4082 7.00329 10.4138 6.83568 10.4138 5.50045C10.4138 4.16523 10.4138 3.99761 10.3888 3.47318L10.3928 3.47261ZM9.50646 7.48966C9.50288 7.80158 9.44521 8.11052 9.33601 8.40273C9.25402 8.61493 9.12857 8.80765 8.96771 8.96852C8.80685 9.12938 8.61413 9.25483 8.40192 9.33682C8.10966 9.44584 7.80076 9.50351 7.48885 9.50727C6.9701 9.53057 6.81442 9.53625 5.50021 9.53625C4.18601 9.53625 4.02976 9.53057 3.51158 9.50727C3.19965 9.50373 2.8907 9.44605 2.59851 9.33682C2.38507 9.25844 2.19204 9.13299 2.03374 8.96977C1.87094 8.81113 1.74555 8.61819 1.66669 8.405C1.55768 8.11274 1.50001 7.80383 1.49624 7.49193C1.47294 6.97318 1.46726 6.8175 1.46726 5.50329C1.46726 4.18909 1.47294 4.03284 1.49624 3.51466C1.49978 3.20273 1.55745 2.89379 1.66669 2.60159C1.74516 2.38765 1.87148 2.19448 2.03601 2.03682C2.1946 1.87396 2.38755 1.74856 2.60078 1.66977C2.89305 1.56079 3.20195 1.50312 3.51385 1.49932C4.0326 1.47602 4.18828 1.47034 5.50249 1.47034C6.81669 1.47034 6.97294 1.47602 7.49112 1.49932C7.80305 1.50289 8.11198 1.56057 8.40419 1.66977C8.61764 1.74811 8.81069 1.87357 8.96896 2.03682C9.13177 2.19545 9.25716 2.38839 9.33601 2.60159C9.445 2.89385 9.50267 3.20275 9.50646 3.51466C9.52976 4.03341 9.53544 4.18909 9.53544 5.50329C9.53544 6.8175 9.52976 6.96977 9.50646 7.48852V7.48966Z" fill="black"/>
<path d="M5.50383 2.97314C5.00399 2.97314 4.51537 3.12137 4.09976 3.39907C3.68415 3.67677 3.36022 4.07147 3.16894 4.53327C2.97766 4.99507 2.92761 5.50322 3.02513 5.99347C3.12264 6.48371 3.36334 6.93403 3.71679 7.28747C4.07023 7.64092 4.52055 7.88161 5.01079 7.97913C5.50103 8.07664 6.00918 8.0266 6.47098 7.83531C6.93278 7.64403 7.32748 7.3201 7.60519 6.90449C7.88289 6.48889 8.03111 6.00026 8.03111 5.50042C8.03096 4.83019 7.76465 4.18746 7.29072 3.71353C6.8168 3.23961 6.17406 2.9733 5.50383 2.97314ZM5.50383 7.13962C5.17963 7.13962 4.86271 7.04348 4.59314 6.86336C4.32358 6.68325 4.11347 6.42724 3.98941 6.12772C3.86534 5.82819 3.83288 5.4986 3.89613 5.18062C3.95938 4.86265 4.1155 4.57057 4.34475 4.34132C4.57399 4.11208 4.86607 3.95596 5.18404 3.89271C5.50201 3.82946 5.83161 3.86192 6.13113 3.98599C6.43066 4.11006 6.68666 4.32016 6.86678 4.58972C7.0469 4.85929 7.14304 5.17621 7.14304 5.50042C7.14289 5.93511 6.97014 6.35197 6.66276 6.65935C6.35539 6.96672 5.93853 7.13947 5.50383 7.13962Z" fill="black"/>
<path d="M8.71959 2.87322C8.71959 2.98987 8.68499 3.10389 8.62018 3.20088C8.55538 3.29787 8.46328 3.37346 8.35551 3.4181C8.24775 3.46274 8.12916 3.47442 8.01476 3.45166C7.90035 3.42891 7.79527 3.37274 7.71279 3.29025C7.63031 3.20777 7.57413 3.10269 7.55137 2.98828C7.52862 2.87388 7.54029 2.75529 7.58493 2.64753C7.62956 2.53976 7.70517 2.44765 7.80216 2.38284C7.89914 2.31804 8.01317 2.28345 8.12982 2.28345C8.28624 2.28345 8.43625 2.34558 8.54685 2.45619C8.65746 2.56679 8.71959 2.7168 8.71959 2.87322Z" fill="black"/>
</svg>
