<?xml version="1.0" encoding="UTF-8"?>
<svg width="85px" height="16px" viewBox="0 0 85 16" version="1.1" xmlns="http://www.w3.org/2000/svg" xmlns:xlink="http://www.w3.org/1999/xlink">
    <!-- Generator: sketchtool 64 (101010) - https://sketch.com -->
    <title>226C0147-7EC8-4D0F-B284-F312064AB6BB</title>
    <desc>Created with sketchtool.</desc>
    <g id="Page-1" stroke="none" stroke-width="1" fill="none" fill-rule="evenodd">
        <g id="Home---Desktop-X-Large-(1440)" transform="translate(-106.000000, -3694.000000)" fill="#FFFFFF" fill-rule="nonzero">
            <g id="footer-/-desktop" transform="translate(0.000000, 3083.000000)">
                <g id="Group-32">
                    <g id="Group-17" transform="translate(0.000000, 340.000000)">
                        <g id="Group-9" transform="translate(106.000000, 266.000000)">
                            <path d="M72.1056499,16.8878656 C71.398034,16.7083794 71.2211305,16.3494042 71.1326774,15.6314567 C70.9557742,14.4647894 70.9557742,11.5929935 71.1326774,10.3365847 C71.2211305,9.70838166 71.5749399,9.34940645 72.1056499,9.16992029 C72.7248156,8.99043124 78.3857513,8.90068961 79.0049141,9.16992029 C79.5356267,9.34940645 79.7125328,9.70838166 79.8009828,10.246843 C80.0663391,11.4135074 80.0663391,14.3750478 79.8009828,15.5417122 C79.7125328,16.0801735 79.5356267,16.3494042 79.0049141,16.6186349 C78.4742043,17.0673517 72.9017189,17.0673517 72.1056499,16.8878656 Z M80.9859141,5.29814972 C79.29108,4.94586677 72.7793422,4.85779816 70.1924887,5.29814972 C68.2300493,5.65043268 66.7136155,7.05955883 66.2676042,8.82097078 C65.9107986,10.8465914 65.9107986,15.3381899 66.2676042,17.1876676 C66.6244127,18.8610109 68.0516408,20.3582085 70.1924887,20.7104887 C72.4225338,21.1508431 79.0234747,21.0627716 81.0751169,20.62242 C83.4835647,20.093997 84.4647902,18.3325879 84.7323958,17.1876676 C85.0892014,15.4262585 85.0892014,10.9346628 84.7323958,8.82097078 C84.2863816,6.97148738 82.6807507,5.65043268 80.9859141,5.29814972 Z M59,5 L64,5 L64,20 L59,20 L59,5 Z M50.3908647,14.8391489 C51.1675116,15.0167316 51.3401022,15.6382725 51.3401022,16.1710234 C51.3401022,16.7037744 51.2538069,17.3253181 50.3908647,17.4141109 C49.4416243,17.5916936 46.2487331,17.5916936 45.0406095,17.4141109 C44.5228431,17.3253181 43.9187841,17.3253181 43.7461934,16.348609 L43.7461934,16.0822335 L39,16.0822335 C39,16.1710234 39,16.4373989 39.0862981,16.7925671 C39.258886,18.834781 40.0355357,20.2554483 42.2791894,20.6994094 C44.0913719,21.0545748 50.9086283,21.1433675 52.9796941,20.6994094 C55.3959382,20.1666584 56,17.946859 56,15.9934407 C56,13.773647 55.2233506,12.264184 53.3248755,11.6426403 C52.8071062,11.4650576 51.5989855,11.3762648 51.081219,11.3762648 C50.6497479,11.3762648 45.558376,11.1986821 44.4365474,11.0210994 C43.7461931,10.9323067 43.5736052,10.4883485 43.5736052,9.86680476 C43.5736052,9.24526103 43.6599005,8.80130286 44.5228428,8.62372016 C45.5583757,8.44613746 49.6142147,8.44613746 50.0456858,8.62372016 C50.5634523,8.80130286 50.7360402,9.15647111 50.7360402,9.60042928 L50.7360402,9.95559754 L55.4822336,9.95559754 C55.4822336,9.60042928 55.3959382,9.33405381 55.3959382,9.06767833 C55.1370578,6.67029619 53.8426416,5.33842167 51.5126898,5.16083611 C49.1827408,4.89446064 43.8324884,4.98325341 42.1928938,5.24962889 C40.6395972,5.60479715 39.0862978,6.58150627 39.0862978,9.86680476 C39.0862978,12.5305595 40.2944186,13.8624369 42.3654844,14.3063979 C42.9695434,14.3951879 44.6954307,14.4839806 44.9543139,14.4839806 C45.5583757,14.5727734 50.0456858,14.7503561 50.3908644,14.8391489 L50.3908647,14.8391489 Z M31,15 L26,15 L28.1311459,9 L28.8688506,9 L31,15 Z M32.7444942,17.327583 L33.8017604,20 L39,20 L32.480177,5 L25.4317163,5 L19,20 L24.198237,20 L25.2555058,17.241378 L32.7444945,17.327583 L32.7444945,17.327583 L32.7444942,17.327583 Z M5.06074741,15.5893601 C5.14953341,16.4763509 5.59345766,16.6537479 6.03738192,16.7424479 C6.74766703,16.9198449 11.8084116,16.9198449 12.6962601,16.7424479 C13.3177563,16.6537479 13.7616806,16.210254 13.8504666,15.67806 C13.8504666,15.4119631 13.9392555,14.9684691 13.9392555,14.7910721 L19,14.7910721 C19,15.1458661 19,16.0328569 18.911214,16.8311478 C18.6448589,18.6938237 17.5794384,20.2017084 15.2710254,20.7339023 C13.6728975,21.0886992 5.94859879,21.0886992 4.17289889,20.7339023 C2.30841301,20.2904083 0.710282245,19.1373234 0.266357987,17.1859419 C-0.0887859957,15.4119631 -0.0887859957,10.7996148 0.266357987,8.84823895 C0.532713114,7.42905134 1.86448875,5.74377248 4.0841129,5.30027849 C6.12616792,4.94548159 13.3177563,4.85678165 15.2710254,5.30027849 C17.8457935,5.9211695 18.6448589,8.22734508 18.7336449,9.02563597 C18.8224309,9.9126268 18.8224309,10.5335178 18.8224309,10.8883147 L13.7616806,10.8883147 C13.7616806,10.5335178 13.8504666,9.55782989 12.9626152,9.29173293 C12.4299078,9.11433591 7.45794641,9.11433591 6.21495391,9.20303299 C5.59345766,9.29173293 5.2383194,9.55782989 5.14953341,10.1787238 C4.88317828,11.4205086 4.88317828,14.4362752 5.06074741,15.5893601 L5.06074741,15.5893601 Z" id="logo-casio"></path>
                        </g>
                    </g>
                </g>
            </g>
        </g>
    </g>
</svg>