<svg width="13" height="11" viewBox="0 0 13 11" fill="none" xmlns="http://www.w3.org/2000/svg">
<path d="M12.3099 1.97969C11.8728 2.17032 11.4104 2.297 10.9372 2.35583C11.436 2.0601 11.809 1.59169 11.9855 1.03935C11.5184 1.31633 11.0075 1.51138 10.4747 1.61605C10.148 1.26734 9.72401 1.02492 9.25778 0.920275C8.79156 0.815631 8.30463 0.853603 7.86026 1.02926C7.41589 1.20491 7.03461 1.51013 6.76593 1.90526C6.49726 2.3004 6.35362 2.7672 6.35366 3.24503C6.35232 3.42764 6.37138 3.60983 6.41048 3.78821C5.46276 3.74168 4.53553 3.49566 3.6894 3.06623C2.84327 2.6368 2.0973 2.03364 1.50025 1.29617C1.19429 1.82003 1.09965 2.44087 1.23564 3.0321C1.37162 3.62333 1.72798 4.14043 2.23207 4.47798C1.85504 4.46792 1.48596 4.36737 1.15593 4.1848V4.21435C1.15655 4.76445 1.34666 5.29755 1.69427 5.72391C2.04187 6.15027 2.52575 6.44385 3.06445 6.55526C2.86052 6.609 2.65034 6.63536 2.43945 6.63367C2.28804 6.63629 2.13679 6.62257 1.98832 6.59276C2.14283 7.06449 2.43951 7.47685 2.83767 7.77328C3.23583 8.06972 3.71596 8.23569 4.21218 8.24844C3.36904 8.909 2.32872 9.26771 1.25763 9.26719C1.06773 9.26831 0.877953 9.2573 0.689453 9.23424C1.77869 9.93638 3.04807 10.3078 4.344 10.3036C5.23606 10.3098 6.12047 10.1388 6.94586 9.80034C7.77125 9.4619 8.52116 8.96283 9.15203 8.33212C9.78291 7.7014 10.2822 6.95161 10.6208 6.12631C10.9595 5.301 11.1307 4.41664 11.1247 3.52458C11.1247 3.41946 11.1213 3.31776 11.1162 3.21662C11.586 2.88031 11.9905 2.46114 12.3099 1.97969Z" fill="black"/>
</svg>
